<?xml version="1.0" standalone="no"?>
<!DOCTYPE svg PUBLIC "-//W3C//DTD SVG 20010904//EN"
 "http://www.w3.org/TR/2001/REC-SVG-20010904/DTD/svg10.dtd">
<svg version="1.0" xmlns="http://www.w3.org/2000/svg"
 width="150.000000pt" height="150.000000pt" viewBox="0 0 150.000000 150.000000"
 preserveAspectRatio="xMidYMid meet">

<g transform="translate(0.000000,150.000000) scale(0.100000,-0.100000)"
fill="#000000" stroke="none">
<path d="M100 774 c0 -47 4 -73 10 -69 13 8 13 145 0 145 -6 0 -10 -32 -10
-76z"/>
<path d="M140 774 c0 -47 4 -73 10 -69 6 3 10 30 10 58 l1 52 31 -57 c17 -32
35 -55 39 -52 13 7 11 144 -1 144 -5 0 -10 -26 -10 -57 l-1 -58 -30 58 c-16
31 -34 57 -39 57 -6 0 -10 -33 -10 -76z"/>
<path d="M260 774 c0 -47 4 -73 10 -69 6 3 10 24 10 45 0 35 3 39 28 43 l27 4
-27 2 c-21 1 -28 6 -28 20 0 14 8 21 28 24 22 3 20 4 -10 6 l-38 1 0 -76z"/>
<path d="M350 781 c0 -39 5 -73 10 -76 6 -4 10 8 10 29 0 20 5 36 10 36 6 0
10 -3 10 -7 0 -5 12 -21 26 -38 l26 -30 -21 35 c-20 35 -20 36 -1 48 42 26 17
72 -37 72 l-33 0 0 -69z m65 29 c0 -18 -6 -26 -22 -28 -20 -3 -23 1 -23 28 0
27 3 31 23 28 16 -2 22 -10 22 -28z"/>
<path d="M485 825 c-39 -38 -32 -86 17 -111 51 -26 108 6 108 62 0 68 -77 98
-125 49z m95 -5 c54 -54 -12 -126 -81 -90 -28 15 -26 74 3 94 30 21 54 20 78
-4z"/>
<path d="M937 843 c20 -4 22 -11 26 -76 l3 -72 2 72 c2 70 3 72 30 76 15 2 2
4 -28 4 -30 0 -45 -2 -33 -4z"/>
<path d="M1042 778 l3 -73 33 -3 c18 -2 32 1 32 7 0 6 -11 11 -25 11 -22 0
-25 4 -25 34 0 30 4 35 28 39 l27 4 -27 2 c-21 1 -28 6 -28 20 0 14 8 21 28
24 21 3 19 4 -11 6 l-38 1 3 -72z"/>
<path d="M1151 824 c-12 -15 -21 -34 -21 -44 0 -10 9 -29 21 -44 16 -20 29
-26 59 -26 21 0 41 4 45 9 3 6 -9 7 -30 4 -44 -7 -75 17 -75 58 0 38 37 63 82
54 25 -5 29 -4 18 4 -29 20 -77 13 -99 -15z"/>
<path d="M1281 781 c0 -39 4 -73 9 -76 6 -4 10 8 10 29 0 33 2 36 30 36 28 0
30 -3 30 -36 0 -21 4 -33 10 -29 6 3 10 37 10 76 0 39 -4 69 -10 69 -5 0 -10
-16 -10 -35 0 -32 -2 -35 -30 -35 -28 0 -30 3 -30 35 0 19 -4 35 -9 35 -5 0
-9 -31 -10 -69z"/>
<path d="M640 811 c0 -20 2 -23 10 -11 8 12 10 11 10 -7 0 -15 6 -21 19 -20
13 1 17 7 14 22 -2 11 5 3 17 -17 24 -44 26 -45 26 -18 0 10 -2 17 -5 14 -3
-3 -13 10 -22 28 -12 23 -24 33 -43 34 -22 1 -26 -3 -26 -25z"/>
<path d="M752 821 c-3 -9 -7 -20 -10 -25 -3 -5 0 -6 6 -2 7 4 12 1 12 -8 0 -9
7 -16 15 -16 8 0 15 7 15 16 0 8 5 12 10 9 6 -3 10 4 10 17 0 19 -5 24 -26 24
-15 0 -29 -7 -32 -15z"/>
<path d="M862 773 c-12 -37 -19 -69 -16 -72 2 -3 7 5 11 17 7 29 49 30 58 1 4
-11 9 -18 12 -16 6 6 -27 126 -37 132 -3 2 -16 -26 -28 -62z m38 -10 c0 -7 -7
-13 -16 -13 -11 0 -14 5 -10 16 3 9 6 21 6 27 0 16 20 -14 20 -30z"/>
<path d="M518 663 c123 -2 321 -2 440 0 119 1 19 2 -223 2 -242 0 -340 -1
-217 -2z"/>
<path d="M1350 31 c-5 -11 -10 -22 -10 -25 0 -12 88 -6 93 7 4 9 6 9 6 0 1 -8
14 -13 31 -13 25 0 30 4 30 25 0 24 -2 25 -70 25 -58 0 -71 -3 -80 -19z"/>
</g>
</svg>
